<?xml version="1.0" encoding="iso-8859-1"?>
<!-- Uploaded to: SVG Repo, www.svgrepo.com, Generator: SVG Repo Mixer Tools -->
<svg height="800px" width="800px" version="1.1" id="Layer_1" xmlns="http://www.w3.org/2000/svg" xmlns:xlink="http://www.w3.org/1999/xlink" 
	 viewBox="0 0 512 512" xml:space="preserve">
<g>
	<circle style="fill:#F4661E;" cx="255.994" cy="256.006" r="35.311"/>
	<path style="fill:#F4661E;" d="M255.994,126.541c71.506,0,129.465,57.959,129.465,129.465c0,71.494-57.959,129.465-129.465,129.465
		c-71.494,0-129.465-57.971-129.465-129.465C126.529,184.5,184.5,126.541,255.994,126.541z M332.499,256.006
		c0-42.255-34.25-76.505-76.505-76.505c-42.243,0-76.493,34.25-76.493,76.505c0,42.243,34.25,76.493,76.493,76.493
		C298.249,332.499,332.499,298.249,332.499,256.006z"/>
</g>
<g>
	<path style="fill:#E7ECED;" d="M255.994,179.501c42.255,0,76.505,34.25,76.505,76.505c0,42.243-34.25,76.493-76.505,76.493
		c-42.243,0-76.493-34.25-76.493-76.493C179.501,213.751,213.751,179.501,255.994,179.501z M291.305,256.006
		c0-19.5-15.81-35.311-35.311-35.311s-35.311,15.81-35.311,35.311s15.81,35.311,35.311,35.311S291.305,275.506,291.305,256.006z"/>
	<path style="fill:#E7ECED;" d="M255.994,67.686c104.01,0,188.32,84.31,188.32,188.32c0,103.999-84.31,188.308-188.32,188.308
		c-103.999,0-188.308-84.31-188.308-188.308C67.686,151.995,151.995,67.686,255.994,67.686z M385.459,256.006
		c0-71.506-57.959-129.465-129.465-129.465c-71.494,0-129.465,57.959-129.465,129.465c0,71.494,57.971,129.465,129.465,129.465
		C327.5,385.471,385.459,327.5,385.459,256.006z"/>
</g>
<path style="fill:#F4661E;" d="M255.994,8.842c136.503,0,247.163,110.66,247.163,247.163s-110.66,247.152-247.163,247.152
	S8.842,392.509,8.842,256.006S119.491,8.842,255.994,8.842z M444.314,256.006c0-104.01-84.31-188.32-188.32-188.32
	c-103.999,0-188.308,84.31-188.308,188.32c0,103.999,84.31,188.308,188.308,188.308
	C360.005,444.314,444.314,360.005,444.314,256.006z"/>
<path d="M255.994,512c-68.381,0-132.667-26.627-181.017-74.977C26.627,388.673,0,324.387,0,256.006S26.627,123.335,74.977,74.984
	C123.327,26.63,187.614,0,255.994,0s132.668,26.63,181.022,74.984S512,187.626,512,256.006s-26.63,132.667-74.984,181.017
	C388.663,485.372,324.376,512,255.994,512z M255.994,17.685c-131.404,0-238.309,106.911-238.309,238.321
	c0,131.404,106.905,238.309,238.309,238.309c131.41,0,238.321-106.905,238.321-238.309
	C494.315,124.596,387.404,17.685,255.994,17.685z"/>
<path d="M255.994,453.157c-108.71,0-197.152-88.442-197.152-197.152c0-108.716,88.442-197.161,197.152-197.161
	c108.716,0,197.161,88.447,197.161,197.161C453.155,364.716,364.71,453.157,255.994,453.157z M255.994,76.528
	c-98.959,0-179.467,80.513-179.467,179.476c0,98.959,80.509,179.467,179.467,179.467c98.963,0,179.476-80.509,179.476-179.467
	C435.471,157.041,354.957,76.528,255.994,76.528z"/>
<path d="M255.994,394.313c-76.264,0-138.309-62.044-138.309-138.309c0-76.263,62.044-138.307,138.309-138.307
	c76.263,0,138.307,62.044,138.307,138.307C394.3,332.269,332.256,394.313,255.994,394.313z M255.994,135.383
	c-66.512,0-120.624,54.111-120.624,120.622s54.112,120.622,120.624,120.622s120.622-54.111,120.622-120.624
	S322.506,135.383,255.994,135.383z"/>
<path d="M255.994,341.341c-47.053,0-85.335-38.282-85.335-85.335c0-47.061,38.282-85.347,85.335-85.347
	c47.061,0,85.347,38.287,85.347,85.347C341.341,303.059,303.055,341.341,255.994,341.341z M255.994,188.344
	c-37.303,0-67.65,30.353-67.65,67.662c0,37.303,30.347,67.65,67.65,67.65c37.309,0,67.662-30.347,67.662-67.65
	C323.656,218.697,293.302,188.344,255.994,188.344z"/>
<path d="M255.994,300.159c-24.346,0-44.153-19.807-44.153-44.153c0-24.345,19.807-44.152,44.153-44.152
	c24.345,0,44.152,19.807,44.152,44.152C300.146,280.352,280.339,300.159,255.994,300.159z M255.994,229.538
	c-14.595,0-26.468,11.872-26.468,26.467c0,14.595,11.874,26.468,26.468,26.468c14.595,0,26.467-11.874,26.467-26.468
	C282.461,241.41,270.589,229.538,255.994,229.538z"/>
</svg>